<svg xmlns="http://www.w3.org/2000/svg" xmlns:xlink="http://www.w3.org/1999/xlink" width="101" height="101" viewBox="0 0 26.723 26.723"><defs><linearGradient xlink:href="#a" id="b" x1="13.642" x2="96.265" y1="4.817" y2="4.817" gradientTransform="matrix(.26686 0 0 .323 -3.542 -1.51)" gradientUnits="userSpaceOnUse"/><linearGradient id="a"><stop offset="0" stop-color="#ee2a7b"/><stop offset="1" stop-color="#ff7db8"/></linearGradient></defs><path d="M22.148 10.791c0-1.468-1.028-2.701-2.378-3.053.499-.734.733-1.556.557-2.437-.058-.235-.205-.44-.44-.529a.698.698 0 0 0-.675.06c-1.527.91-2.79 1.35-3.611 1.555l-1.41-2.495a.69.69 0 0 0-.734-.353c-.293.03-.528.264-.616.558-.176.705-.705 1.556-1.35 2.26v-.91c0-1.732.968-3.317 2.524-4.08L13.37.046a6.033 6.033 0 0 0-3.347 5.402v1.497L6.206 3.128a.757.757 0 0 0-.646-.205.662.662 0 0 0-.529.381 6.726 6.726 0 0 0-.616 2.114L1.596 3.715a.667.667 0 0 0-.734 0 .685.685 0 0 0-.381.617c-.03.94.323 2.466 1.497 3.552C.862 8.384.099 9.47.099 10.762c0 .675.205 1.291.587 1.82a3.203 3.203 0 0 0-.587 1.82c0 1.086.558 2.055 1.41 2.613-.118.352-.206.705-.206 1.116a3.122 3.122 0 0 0 2.407 3.053 3.2 3.2 0 0 0 2.496 3.053 3.153 3.153 0 0 0 3.082 2.496 3.16 3.16 0 0 0 2.114-.822 3.16 3.16 0 0 0 2.114.822c1.497 0 2.79-1.057 3.083-2.496a3.153 3.153 0 0 0 2.495-3.082v-.176a3.12 3.12 0 0 0 1.82-2.848c0-.529-.146-1.028-.352-1.468.587-.587.969-1.38.969-2.26 0-.5-.117-.97-.323-1.38.587-.559.94-1.351.94-2.232zm-2.085 3.64c0 .94-.763 1.674-1.673 1.674a1.705 1.705 0 0 1-1.498-.88c.059-.265.118-.53.118-.794s-.03-.528-.118-.792c.059-.118.118-.206.206-.323a3.2 3.2 0 0 0 1.879.616c.323 0 .646-.058.969-.146.088.205.117.41.117.645zm-.587 3.73c0 .939-.763 1.673-1.674 1.673-.91 0-1.673-.764-1.673-1.674 0-.44.176-.851.47-1.174.528.352 1.145.587 1.82.587.323 0 .617-.059.91-.147.088.235.147.47.147.734zm-5.93 7.133a1.656 1.656 0 0 1-1.527-.969 2.982 2.982 0 0 0 1.82-.822 3.34 3.34 0 0 0 1.262.705 1.665 1.665 0 0 1-1.556 1.086zm-10.629-7.75c.118 0 .235.029.353.029.44 0 .822-.088 1.203-.235.177.059.353.117.558.176-.03.206-.058.411-.058.646 0 .529.117 1.028.352 1.468a1.578 1.578 0 0 1-.822.235c-.94 0-1.674-.763-1.674-1.674-.029-.234.03-.44.088-.645zm-1.32-6.753c0-.94.763-1.674 1.673-1.674h.205c-.293.5-.47 1.057-.47 1.674 0 .616.177 1.174.47 1.673H3.27c-.91 0-1.674-.734-1.674-1.673zM2.3 5.859l2.202 1.32c.03.177.059.324.117.5-1.32-.323-1.996-1.116-2.32-1.82zm16.705 6.605c-.41 0-.793-.146-1.086-.41a3.08 3.08 0 0 0 .264-1.292c0-.47-.088-.881-.264-1.292a1.612 1.612 0 0 1 1.086-.411c.94 0 1.674.763 1.674 1.673s-.764 1.732-1.674 1.732zM6 4.978l3.2 3.2a4.694 4.694 0 0 1-2.965-.264A4.785 4.785 0 0 1 6 4.978zm5.754 17.88c-.939 0-1.673-.764-1.673-1.674 0-.235.059-.47.147-.646l.352-.352a3.11 3.11 0 0 0 2.408 1.145c.146 0 .323-.03.47-.03-.089.852-.823 1.556-1.704 1.556zm-7.75-8.427c0-.205.03-.41.117-.587.206-.058.411-.146.587-.235.44.235.91.353 1.439.353h.264c-.03.147-.03.323-.03.499 0 .499.118.94.324 1.35a1.625 1.625 0 0 1-.998.323c-.94-.029-1.703-.792-1.703-1.703zm11.831-5.108c.529.294.881.851.881 1.468 0 .94-.763 1.673-1.673 1.673a1.653 1.653 0 0 1-1.439-.822c.088-.264.118-.557.118-.88 0-.323-.06-.588-.118-.881.03-.059.059-.118.118-.147a7.7 7.7 0 0 0 2.113-.411zm-.293 5.108c0 .94-.764 1.674-1.674 1.674a1.654 1.654 0 0 1-1.35-.675c.117-.323.176-.646.176-.999 0-.352-.059-.675-.176-.998.088-.147.205-.264.352-.352.558.528 1.321.88 2.173.88.146 0 .293 0 .44-.029.03.147.059.323.059.5zm-.91 3.73a1.673 1.673 0 1 1-3.347 0c0-.53.235-.97.616-1.293.529.44 1.233.705 1.997.705.235 0 .44-.03.646-.059.058.206.088.411.088.646zm-5.109-2.056c-.94 0-1.673-.763-1.673-1.674 0-.528.235-.998.616-1.291a3.16 3.16 0 0 0 2.114.822c.206 0 .382-.03.558-.059.059.176.088.352.088.528-.03.91-.793 1.674-1.703 1.674zm2.73-5.314c0 .94-.763 1.673-1.673 1.673s-1.673-.763-1.673-1.673c0-.44.176-.822.44-1.116.323-.058.675-.146.969-.293.499.176 1.027.264 1.556.352.235.294.382.646.382 1.057zM5.56 9.235a5.6 5.6 0 0 0 1.937.528l.089.088a3.309 3.309 0 0 0-.147.94c0 .323.058.646.147.94-.294.44-.823.733-1.41.733-.94 0-1.673-.763-1.673-1.673A1.588 1.588 0 0 1 5.56 9.235zm.88 8.925c0-.264.06-.499.147-.705a3.415 3.415 0 0 0 1.028-.528 3.118 3.118 0 0 0 1.908.646H9.7c.06.176.118.382.118.587 0 .94-.764 1.674-1.674 1.674-.91 0-1.702-.764-1.702-1.674zm10.482-9.894c-.118-.088-.235-.147-.353-.235l-.205-.352a15.04 15.04 0 0 0 2.231-.852c-.352.558-.969 1.057-1.673 1.44zm-2.026-.205c-1.057.293-2.173.323-3.23.146a9.415 9.415 0 0 0 1.967-2.348zM1.83 13.58c.235.117.5.234.763.293-.029.176-.058.352-.058.557 0 .617.176 1.175.47 1.674a1.68 1.68 0 0 1-1.44-1.674c.03-.322.118-.587.265-.85zm4.463 7.163c.499.352 1.145.587 1.82.587.147 0 .323-.03.47-.03-.059.881-.793 1.586-1.674 1.586-.91 0-1.673-.734-1.673-1.644a4.368 4.368 0 0 0 1.057-.5zm3.024 2.466c.293.352.675.646 1.115.851.03.235.088.44.176.646a1.73 1.73 0 0 1-1.291.587c-.705 0-1.321-.44-1.556-1.057.616-.205 1.174-.557 1.556-1.027zm6.664-.352c-.499 0-.969-.235-1.292-.588.118-.352.206-.704.206-1.086 0-.176-.03-.352-.059-.5.206-.146.352-.322.529-.498.557.646 1.38 1.086 2.29 1.115a1.67 1.67 0 0 1-1.674 1.557z" style="fill:url(#b);stroke-width:.29359" transform="translate(2.018 -.046)"/></svg>