<?xml version="1.0" encoding="UTF-8" standalone="no"?>
<!-- Created with Inkscape (http://www.inkscape.org/) -->

<svg
   width="22.048613mm"
   height="26.687328mm"
   viewBox="0 0 22.048613 26.687328"
   version="1.1"
   id="svg698"
   inkscape:export-filename="icon.png"
   inkscape:export-xdpi="96"
   inkscape:export-ydpi="96"
   xmlns:inkscape="http://www.inkscape.org/namespaces/inkscape"
   xmlns:sodipodi="http://sodipodi.sourceforge.net/DTD/sodipodi-0.dtd"
   xmlns:xlink="http://www.w3.org/1999/xlink"
   xmlns="http://www.w3.org/2000/svg"
   xmlns:svg="http://www.w3.org/2000/svg">
  <sodipodi:namedview
     id="namedview700"
     pagecolor="#ffffff"
     bordercolor="#666666"
     borderopacity="1.0"
     inkscape:showpageshadow="2"
     inkscape:pageopacity="0.0"
     inkscape:pagecheckerboard="0"
     inkscape:deskcolor="#d1d1d1"
     inkscape:document-units="mm"
     showgrid="false" />
  <defs
     id="defs695">
    <linearGradient
       inkscape:collect="always"
       xlink:href="#SvgjsLinearGradient2653"
       id="linearGradient677"
       gradientTransform="matrix(0.26685748,0,0,0.32300058,-3.5415478,-1.5104635)"
       x1="13.642176"
       y1="4.8174133"
       x2="96.265358"
       y2="4.8174133"
       gradientUnits="userSpaceOnUse" />
    <linearGradient
       id="SvgjsLinearGradient2653">
      <stop
         id="SvgjsStop2654"
         stop-color="#ee2a7b"
         offset="0" />
      <stop
         id="SvgjsStop2655"
         stop-color="#ff7db8"
         offset="1" />
    </linearGradient>
  </defs>
  <g
     inkscape:label="Layer 1"
     inkscape:groupmode="layer"
     id="layer1"
     transform="translate(-0.09896717,-0.0455465)">
    <path
       d="m 22.147581,10.790967 c 0,-1.4679601 -1.027565,-2.7010305 -2.378079,-3.0533405 0.499103,-0.73398 0.733975,-1.55603 0.557821,-2.4368 -0.05872,-0.23487 -0.205513,-0.44038 -0.440385,-0.52846 -0.205514,-0.0881 -0.469744,-0.0881 -0.675257,0.0587 -1.526669,0.91013 -2.789106,1.35051 -3.611158,1.55602 l -1.409232,-2.49551 c -0.146795,-0.26423 -0.440385,-0.41103 -0.733976,-0.35231 -0.293589,0.0294 -0.528462,0.26423 -0.616539,0.55782 -0.176154,0.70462 -0.704616,1.55603 -1.350514,2.26065 v -0.91013 c 0,-1.73219 0.968847,-3.31757 2.524875,-4.08091 l -0.645898,-1.32115 c -2.055131,1.02756 -3.346927,3.11205 -3.346927,5.40206 v 1.49731 l -3.8166708,-3.81668 c -0.176154,-0.17615 -0.411026,-0.23487 -0.645898,-0.20551 -0.234872,0.0294 -0.440385,0.17616 -0.528462,0.38167 -0.322949,0.67526 -0.528462,1.37987 -0.616539,2.11385 l -2.818466,-1.70283 c -0.23487,-0.14679 -0.499102,-0.14679 -0.73397198,0 -0.23487405,0.11744 -0.38167005,0.35231 -0.38167005,0.61654 -0.02936,0.93949 0.322951,2.46616 1.49731203,3.55244 -1.11564198,0.49911 -1.87897903,1.5853904 -1.87897903,2.8771905 0,0.67525 0.205516,1.29179 0.587182,1.82025 -0.352308,0.49911 -0.587182,1.14501 -0.587182,1.82026 0,1.08629 0.557821,2.05513 1.40923503,2.61295 -0.117438,0.35231 -0.205515,0.70462 -0.205515,1.11565 0,1.49731 1.027565,2.73038 2.407438,3.05333 0.02936,1.49731 1.086284,2.73039 2.495516,3.05334 0.29359,1.40923 1.556027,2.49551 3.082696,2.49551 0.8220518,0 1.5560268,-0.32294 2.1138478,-0.82205 0.557821,0.49911 1.291796,0.82205 2.113849,0.82205 1.497309,0 2.789105,-1.05692 3.082695,-2.49551 1.409232,-0.29359 2.495515,-1.55603 2.495515,-3.0827 0,-0.0587 0,-0.11743 0,-0.17615 1.086284,-0.4991 1.820259,-1.58539 1.820259,-2.84782 0,-0.52847 -0.146795,-1.02757 -0.352308,-1.46795 0.58718,-0.58718 0.968847,-1.37988 0.968847,-2.26065 0,-0.4991 -0.117436,-0.96884 -0.322949,-1.37987 0.58718,-0.55782 0.939488,-1.35051 0.939488,-2.23128 z m -2.084489,3.64051 c 0,0.93949 -0.763335,1.67347 -1.673464,1.67347 -0.645898,0 -1.203719,-0.35231 -1.497309,-0.88078 0.05872,-0.26423 0.117436,-0.52846 0.117436,-0.79269 0,-0.26423 -0.02936,-0.52846 -0.117436,-0.79269 0.05872,-0.11744 0.117436,-0.20551 0.205513,-0.32295 0.528462,0.38167 1.17436,0.61654 1.878976,0.61654 0.322949,0 0.645899,-0.0587 0.968848,-0.1468 0.08808,0.20552 0.117436,0.41103 0.117436,0.6459 z m -0.587181,3.7286 c 0,0.93948 -0.763334,1.67346 -1.673463,1.67346 -0.910129,0 -1.673463,-0.76334 -1.673463,-1.67346 0,-0.44039 0.176154,-0.85142 0.469744,-1.17436 0.528462,0.3523 1.145001,0.58718 1.820258,0.58718 0.322949,0 0.61654,-0.0587 0.910129,-0.1468 0.08808,0.23487 0.146795,0.46974 0.146795,0.73398 z m -5.930518,7.13423 c -0.675258,0 -1.262438,-0.38166 -1.526669,-0.96884 0.704616,-0.0587 1.321156,-0.35231 1.820259,-0.82206 0.352308,0.32295 0.792693,0.55783 1.262437,0.70462 -0.234872,0.61654 -0.822052,1.08628 -1.556027,1.08628 z M 2.9174332,17.543537 c 0.117436,0 0.234871,0.0294 0.352309,0.0294 0.440383,0 0.82205,-0.0881 1.203719,-0.23488 0.176152,0.0587 0.352306,0.11744 0.55782,0.17616 -0.02936,0.20551 -0.05872,0.41102 -0.05872,0.6459 0,0.52846 0.117436,1.02756 0.352308,1.46795 -0.234872,0.14679 -0.528462,0.23487 -0.822052,0.23487 -0.939487,0 -1.673463,-0.76334 -1.673463,-1.67347 -0.02936,-0.23487 0.02936,-0.44038 0.08808,-0.64589 z m -1.321157,-6.75257 c 0,-0.9394901 0.763336,-1.6734701 1.673466,-1.6734701 0.05872,0 0.146793,0 0.205512,0 -0.293589,0.4991 -0.469743,1.0569301 -0.469743,1.6734701 0,0.61653 0.176154,1.17436 0.469743,1.67346 -0.05872,0 -0.146796,0 -0.205512,0 -0.91013,0 -1.673466,-0.73398 -1.673466,-1.67346 z m 0.704617,-4.9323205 2.201926,1.32116 c 0.02936,0.17615 0.05872,0.32295 0.117436,0.4991 -1.321155,-0.32295 -1.996411,-1.11564 -2.319362,-1.82026 z M 19.006168,12.464427 c -0.411027,0 -0.792694,-0.1468 -1.086284,-0.41103 0.176154,-0.38166 0.264231,-0.82205 0.264231,-1.29179 0,-0.46975 -0.08808,-0.8807701 -0.264231,-1.2918001 0.29359,-0.26423 0.675257,-0.41103 1.086284,-0.41103 0.939488,0 1.673463,0.76334 1.673463,1.6734701 0,0.91013 -0.763334,1.73218 -1.673463,1.73218 z M 6.0001282,4.9778765 l 3.200132,3.20013 c -0.968847,0.2348804 -2.025772,0.1468 -2.96526,-0.26423 -0.381667,-0.91013 -0.469744,-1.96705 -0.234872,-2.9359 z M 11.754493,22.857517 c -0.939488,0 -1.673463,-0.76334 -1.673463,-1.67347 0,-0.23487 0.05872,-0.46974 0.146795,-0.6459 0.117436,-0.11743 0.234872,-0.23487 0.352308,-0.3523 0.58718,0.70461 1.438591,1.145 2.407439,1.145 0.146795,0 0.322949,-0.0294 0.469743,-0.0294 -0.08808,0.85141 -0.822052,1.55603 -1.702822,1.55603 z m -7.7507778,-8.42604 c 0,-0.20551 0.02936,-0.41102 0.117438,-0.58718 0.205512,-0.0587 0.411025,-0.14679 0.587179,-0.23487 0.440385,0.23487 0.910129,0.35231 1.438591,0.35231 0.08808,0 0.176154,0 0.264231,0 -0.02936,0.14679 -0.02936,0.32295 -0.02936,0.4991 0,0.4991 0.117436,0.93949 0.322949,1.35051 -0.264231,0.20552 -0.616539,0.32295 -0.998206,0.32295 -0.939487,-0.0293 -1.702823,-0.79269 -1.702822,-1.70282 z M 15.835395,9.3230069 c 0.528462,0.29359 0.88077,0.8514201 0.88077,1.4679601 0,0.93948 -0.763334,1.67346 -1.673463,1.67346 -0.616539,0 -1.145001,-0.32295 -1.438592,-0.82205 0.08808,-0.26423 0.117437,-0.55782 0.117437,-0.88077 0,-0.32295 -0.05872,-0.58718 -0.117437,-0.8807701 0.02936,-0.0587 0.05872,-0.11744 0.117437,-0.1468 0.704616,-0.0294 1.409232,-0.17615 2.113848,-0.41103 z m -0.29359,5.1084701 c 0,0.93949 -0.763334,1.67347 -1.673463,1.67347 -0.557821,0 -1.056924,-0.26424 -1.350515,-0.67526 0.117436,-0.32295 0.176154,-0.6459 0.176154,-0.99821 0,-0.35231 -0.05872,-0.67526 -0.176154,-0.9982 0.08808,-0.1468 0.205513,-0.26424 0.352308,-0.35231 0.557821,0.52846 1.321156,0.88077 2.172567,0.88077 0.146795,0 0.29359,0 0.440385,-0.0294 0.02936,0.14679 0.05872,0.32295 0.05872,0.4991 z m -0.910129,3.7286 c 0,0.93948 -0.763334,1.67346 -1.673463,1.67346 -0.939489,0 -1.673464,-0.76334 -1.673464,-1.67346 0,-0.52847 0.234872,-0.96885 0.616539,-1.2918 0.528462,0.44038 1.233079,0.70462 1.996413,0.70462 0.234872,0 0.440385,-0.0294 0.645898,-0.0587 0.05872,0.20551 0.08808,0.41102 0.08808,0.6459 z m -5.1084668,-2.05513 c -0.939488,0 -1.673463,-0.76334 -1.673463,-1.67347 0,-0.52846 0.234872,-0.9982 0.616539,-1.29179 0.557821,0.4991 1.291796,0.82205 2.1138478,0.82205 0.205513,0 0.381667,-0.0294 0.557821,-0.0587 0.05872,0.17615 0.08808,0.35231 0.08808,0.52846 -0.02936,0.91013 -0.792693,1.67347 -1.7028218,1.67347 z m 2.7303868,-5.31398 c 0,0.93948 -0.763334,1.67346 -1.673463,1.67346 -0.9101288,0 -1.6734628,-0.76334 -1.6734628,-1.67346 0,-0.44039 0.176154,-0.8220601 0.440385,-1.1156501 0.322949,-0.0587 0.6752568,-0.14679 0.9688468,-0.29359 0.499103,0.17616 1.027565,0.26423 1.556027,0.35231 0.234872,0.2935901 0.381667,0.6459001 0.381667,1.0569301 z M 5.5597432,9.2349369 c 0.616539,0.29359 1.262437,0.46974 1.937695,0.52846 0.02936,0.0294 0.05872,0.0587 0.08808,0.0881 -0.08808,0.2935901 -0.146794,0.6165401 -0.146794,0.9394901 0,0.32294 0.05872,0.64589 0.146794,0.93948 -0.293589,0.44039 -0.822052,0.73398 -1.409232,0.73398 -0.939488,0 -1.673463,-0.76334 -1.673463,-1.67346 -0.02936,-0.70462 0.411026,-1.3211601 1.056924,-1.5560301 z m 0.88077,8.9251401 c 0,-0.26424 0.05872,-0.49911 0.146795,-0.70462 0.381667,-0.11744 0.704617,-0.29359 1.027566,-0.52846 0.528462,0.41102 1.203719,0.6459 1.908335,0.6459 0.05872,0 0.117436,0 0.176154,0 0.05872,0.17615 0.117436,0.38166 0.117436,0.58718 0,0.93948 -0.763334,1.67346 -1.673463,1.67346 -0.91013,0 -1.702823,-0.76334 -1.702823,-1.67346 z M 16.921678,8.2660865 c -0.117436,-0.0881 -0.234872,-0.14679 -0.352308,-0.23487 l -0.205513,-0.35231 c 0.616539,-0.17615 1.350514,-0.44038 2.231284,-0.85141 -0.352308,0.55782 -0.968847,1.05692 -1.673463,1.43859 z m -2.025771,-0.20551 c -1.056924,0.29359 -2.172567,0.32295 -3.229491,0.14679 0.763334,-0.6459 1.467951,-1.49731 1.967053,-2.34872 z M 1.8311502,13.580067 c 0.234873,0.11744 0.499102,0.23487 0.763333,0.29359 -0.02936,0.17615 -0.05872,0.35231 -0.05872,0.55782 0,0.61654 0.176154,1.17436 0.469744,1.67347 -0.822053,-0.11744 -1.438593,-0.82206 -1.438593,-1.67347 0.02936,-0.32295 0.117435,-0.58718 0.264232,-0.85141 z m 4.462568,7.1636 c 0.499103,0.35231 1.145002,0.58718 1.820258,0.58718 0.146796,0 0.32295,-0.0294 0.469745,-0.0294 -0.05872,0.88077 -0.792693,1.58539 -1.673463,1.58539 -0.91013,0 -1.673464,-0.73398 -1.673464,-1.64411 0.381667,-0.11744 0.733975,-0.29359 1.056924,-0.4991 z m 3.023978,2.46615 c 0.29359,0.35231 0.6752569,0.6459 1.1156418,0.85142 0.02936,0.23487 0.08808,0.44038 0.176154,0.64589 -0.322949,0.35231 -0.7633338,0.58718 -1.2917958,0.58718 -0.704616,0 -1.321155,-0.44038 -1.556028,-1.05692 0.61654,-0.20551 1.174361,-0.55782 1.556028,-1.02757 z m 6.6644938,-0.3523 c -0.499103,0 -0.968847,-0.23488 -1.291796,-0.58718 0.117436,-0.35231 0.205513,-0.70462 0.205513,-1.08629 0,-0.17615 -0.02936,-0.35231 -0.05872,-0.4991 0.205513,-0.1468 0.352308,-0.32295 0.528462,-0.4991 0.557821,0.64589 1.379873,1.08628 2.290002,1.11564 -0.05872,0.88077 -0.792693,1.55603 -1.673463,1.55603 z"
       id="path614"
       style="fill:url(#linearGradient677);stroke-width:0.29359" />
  </g>
</svg>
