<svg xmlns="http://www.w3.org/2000/svg" viewBox="0 0 369.6666666666667 100.86552485816284" preserveAspectRatio="xMidYMid meet" id="aecafecb"><defs id="SvgjsDefs2648"><linearGradient id="SvgjsLinearGradient2653"><stop id="SvgjsStop2654" stop-color="#ee2a7b" offset="0"/><stop id="SvgjsStop2655" stop-color="#ff7db8" offset="1"/></linearGradient></defs><g id="SvgjsG2649" featurekey="QMusi1-0" transform="matrix(1.1096316576004028,0,0,1.1096316576004028,-13.759435957801083,-5.881046765141733)" fill="url(#SvgjsLinearGradient2653)"><path xmlns="http://www.w3.org/2000/svg" d="M87.5,41.9c0-5-3.5-9.2-8.1-10.4c1.7-2.5,2.5-5.3,1.9-8.3c-0.2-0.8-0.7-1.5-1.5-1.8c-0.7-0.3-1.6-0.3-2.3,0.2  c-5.2,3.1-9.5,4.6-12.3,5.3l-4.8-8.5c-0.5-0.9-1.5-1.4-2.5-1.2c-1,0.1-1.8,0.9-2.1,1.9c-0.6,2.4-2.4,5.3-4.6,7.7v-3.1  c0-5.9,3.3-11.3,8.6-13.9l-2.2-4.5c-7,3.5-11.4,10.6-11.4,18.4v5.1l-13-13c-0.6-0.6-1.4-0.8-2.2-0.7c-0.8,0.1-1.5,0.6-1.8,1.3  c-1.1,2.3-1.8,4.7-2.1,7.2l-9.6-5.8c-0.8-0.5-1.7-0.5-2.5,0c-0.8,0.4-1.3,1.2-1.3,2.1c-0.1,3.2,1.1,8.4,5.1,12.1  c-3.8,1.7-6.4,5.4-6.4,9.8c0,2.3,0.7,4.4,2,6.2c-1.2,1.7-2,3.9-2,6.2c0,3.7,1.9,7,4.8,8.9c-0.4,1.2-0.7,2.4-0.7,3.8  c0,5.1,3.5,9.3,8.2,10.4c0.1,5.1,3.7,9.3,8.5,10.4c1,4.8,5.3,8.5,10.5,8.5c2.8,0,5.3-1.1,7.2-2.8c1.9,1.7,4.4,2.8,7.2,2.8  c5.1,0,9.5-3.6,10.5-8.5c4.8-1,8.5-5.3,8.5-10.5c0-0.2,0-0.4,0-0.6c3.7-1.7,6.2-5.4,6.2-9.7c0-1.8-0.5-3.5-1.2-5  c2-2,3.3-4.7,3.3-7.7c0-1.7-0.4-3.3-1.1-4.7C86.3,47.6,87.5,44.9,87.5,41.9z M80.4,54.3c0,3.2-2.6,5.7-5.7,5.7c-2.2,0-4.1-1.2-5.1-3  c0.2-0.9,0.4-1.8,0.4-2.7s-0.1-1.8-0.4-2.7c0.2-0.4,0.4-0.7,0.7-1.1c1.8,1.3,4,2.1,6.4,2.1c1.1,0,2.2-0.2,3.3-0.5  C80.3,52.8,80.4,53.5,80.4,54.3z M78.4,67c0,3.2-2.6,5.7-5.7,5.7s-5.7-2.6-5.7-5.7c0-1.5,0.6-2.9,1.6-4c1.8,1.2,3.9,2,6.2,2  c1.1,0,2.1-0.2,3.1-0.5C78.2,65.3,78.4,66.1,78.4,67z M58.2,91.3c-2.3,0-4.3-1.3-5.2-3.3c2.4-0.2,4.5-1.2,6.2-2.8  c1.2,1.1,2.7,1.9,4.3,2.4C62.7,89.7,60.7,91.3,58.2,91.3z M22,64.9c0.4,0,0.8,0.1,1.2,0.1c1.5,0,2.8-0.3,4.1-0.8  c0.6,0.2,1.2,0.4,1.9,0.6C29.1,65.5,29,66.2,29,67c0,1.8,0.4,3.5,1.2,5c-0.8,0.5-1.8,0.8-2.8,0.8c-3.2,0-5.7-2.6-5.7-5.7  C21.6,66.3,21.8,65.6,22,64.9z M17.5,41.9c0-3.2,2.6-5.7,5.7-5.7c0.2,0,0.5,0,0.7,0c-1,1.7-1.6,3.6-1.6,5.7s0.6,4,1.6,5.7  c-0.2,0-0.5,0-0.7,0C20.1,47.6,17.5,45.1,17.5,41.9z M19.9,25.1l7.5,4.5c0.1,0.6,0.2,1.1,0.4,1.7C23.3,30.2,21,27.5,19.9,25.1z   M76.8,47.6c-1.4,0-2.7-0.5-3.7-1.4c0.6-1.3,0.9-2.8,0.9-4.4s-0.3-3-0.9-4.4c1-0.9,2.3-1.4,3.7-1.4c3.2,0,5.7,2.6,5.7,5.7  S79.9,47.6,76.8,47.6z M32.5,22.1L43.4,33c-3.3,0.8-6.9,0.5-10.1-0.9C32,29,31.7,25.4,32.5,22.1z M52.1,83c-3.2,0-5.7-2.6-5.7-5.7  c0-0.8,0.2-1.6,0.5-2.2c0.4-0.4,0.8-0.8,1.2-1.2c2,2.4,4.9,3.9,8.2,3.9c0.5,0,1.1-0.1,1.6-0.1C57.6,80.6,55.1,83,52.1,83z   M25.7,54.3c0-0.7,0.1-1.4,0.4-2c0.7-0.2,1.4-0.5,2-0.8c1.5,0.8,3.1,1.2,4.9,1.2c0.3,0,0.6,0,0.9,0c-0.1,0.5-0.1,1.1-0.1,1.7  c0,1.7,0.4,3.2,1.1,4.6c-0.9,0.7-2.1,1.1-3.4,1.1C28.3,60,25.7,57.4,25.7,54.3z M66,36.9c1.8,1,3,2.9,3,5c0,3.2-2.6,5.7-5.7,5.7  c-2.1,0-3.9-1.1-4.9-2.8c0.3-0.9,0.4-1.9,0.4-3s-0.2-2-0.4-3c0.1-0.2,0.2-0.4,0.4-0.5C61.2,38.2,63.6,37.7,66,36.9z M65,54.3  c0,3.2-2.6,5.7-5.7,5.7c-1.9,0-3.6-0.9-4.6-2.3c0.4-1.1,0.6-2.2,0.6-3.4s-0.2-2.3-0.6-3.4c0.3-0.5,0.7-0.9,1.2-1.2  c1.9,1.8,4.5,3,7.4,3c0.5,0,1,0,1.5-0.1C64.9,53.1,65,53.7,65,54.3z M61.9,67c0,3.2-2.6,5.7-5.7,5.7c-3.2,0-5.7-2.6-5.7-5.7  c0-1.8,0.8-3.3,2.1-4.4c1.8,1.5,4.2,2.4,6.8,2.4c0.8,0,1.5-0.1,2.2-0.2C61.8,65.5,61.9,66.2,61.9,67z M44.5,60  c-3.2,0-5.7-2.6-5.7-5.7c0-1.8,0.8-3.4,2.1-4.4c1.9,1.7,4.4,2.8,7.2,2.8c0.7,0,1.3-0.1,1.9-0.2c0.2,0.6,0.3,1.2,0.3,1.8  C50.2,57.4,47.6,60,44.5,60z M53.8,41.9c0,3.2-2.6,5.7-5.7,5.7s-5.7-2.6-5.7-5.7c0-1.5,0.6-2.8,1.5-3.8c1.1-0.2,2.3-0.5,3.3-1  c1.7,0.6,3.5,0.9,5.3,1.2C53.3,39.3,53.8,40.5,53.8,41.9z M31,36.6c2.1,1,4.3,1.6,6.6,1.8c0.1,0.1,0.2,0.2,0.3,0.3  c-0.3,1-0.5,2.1-0.5,3.2s0.2,2.2,0.5,3.2c-1,1.5-2.8,2.5-4.8,2.5c-3.2,0-5.7-2.6-5.7-5.7C27.3,39.5,28.8,37.4,31,36.6z M34,67  c0-0.9,0.2-1.7,0.5-2.4c1.3-0.4,2.4-1,3.5-1.8c1.8,1.4,4.1,2.2,6.5,2.2c0.2,0,0.4,0,0.6,0c0.2,0.6,0.4,1.3,0.4,2  c0,3.2-2.6,5.7-5.7,5.7S34,70.1,34,67z M69.7,33.3c-0.4-0.3-0.8-0.5-1.2-0.8l-0.7-1.2c2.1-0.6,4.6-1.5,7.6-2.9  C74.2,30.3,72.1,32,69.7,33.3z M62.8,32.6c-3.6,1-7.4,1.1-11,0.5c2.6-2.2,5-5.1,6.7-8L62.8,32.6z M18.3,51.4c0.8,0.4,1.7,0.8,2.6,1  c-0.1,0.6-0.2,1.2-0.2,1.9c0,2.1,0.6,4,1.6,5.7c-2.8-0.4-4.9-2.8-4.9-5.7C17.5,53.2,17.8,52.3,18.3,51.4z M33.5,75.8  c1.7,1.2,3.9,2,6.2,2c0.5,0,1.1-0.1,1.6-0.1c-0.2,3-2.7,5.4-5.7,5.4c-3.1,0-5.7-2.5-5.7-5.6C31.2,77.1,32.4,76.5,33.5,75.8z   M43.8,84.2c1,1.2,2.3,2.2,3.8,2.9c0.1,0.8,0.3,1.5,0.6,2.2c-1.1,1.2-2.6,2-4.4,2c-2.4,0-4.5-1.5-5.3-3.6  C40.6,87,42.5,85.8,43.8,84.2z M66.5,83c-1.7,0-3.3-0.8-4.4-2c0.4-1.2,0.7-2.4,0.7-3.7c0-0.6-0.1-1.2-0.2-1.7  c0.7-0.5,1.2-1.1,1.8-1.7c1.9,2.2,4.7,3.7,7.8,3.8C72,80.7,69.5,83,66.5,83z"/></g><g id="SvgjsG2650" featurekey="UyNsn2-0" transform="matrix(3.1350417137145996,0,0,3.1350417137145996,100.61736830751857,3.6945711500493843)" fill="#111111"><path d="M6.84 20.22 c-1.0933 0 -2.0234 -0.18666 -2.79 -0.56 s-1.3933 -0.88668 -1.88 -1.54 s-0.84332 -1.43 -1.07 -2.33 s-0.34 -1.8833 -0.34 -2.95 s0.11334 -2.05 0.34 -2.95 s0.58332 -1.6733 1.07 -2.32 s1.1133 -1.15 1.88 -1.51 s1.6967 -0.54 2.79 -0.54 s2.0234 0.18 2.79 0.54 s1.3933 0.86334 1.88 1.51 s0.84 1.42 1.06 2.32 s0.33 1.8833 0.33 2.95 s-0.11 2.05 -0.33 2.95 s-0.57334 1.6767 -1.06 2.33 s-1.1133 1.1667 -1.88 1.54 s-1.6967 0.56 -2.79 0.56 z M6.84 17.42 c0.92 0 1.5833 -0.38 1.99 -1.14 s0.61 -1.9067 0.61 -3.44 s-0.19666 -2.66 -0.59 -3.38 s-1.0567 -1.08 -1.99 -1.08 c-0.94666 0 -1.6233 0.36 -2.03 1.08 s-0.61 1.8467 -0.61 3.38 s0.20334 2.68 0.61 3.44 s1.0767 1.14 2.01 1.14 z M15.580000000000002 12.02 l-1.9999 0.000019531 l1.32 -2.46 l3.16 0 l0.26 1.16 c0.30666 -0.36 0.68332 -0.65666 1.13 -0.89 s0.97 -0.35 1.57 -0.35 c0.58666 0 1.1333 0.10334 1.64 0.31 s0.94666 0.52332 1.32 0.94998 s0.66668 0.96332 0.88002 1.61 s0.32 1.4167 0.32 2.31 c0 1.7333 -0.48666 3.0766 -1.46 4.03 s-2.3466 1.43 -4.12 1.43 c-0.33334 0 -0.66668 -0.02 -1 -0.06 l0 4.62 l-3.02 0 l0 -12.66 z M18.6 17.4 c0.33334 0.06666 0.67332 0.10002 1.02 0.10002 c0.74666 0 1.34 -0.22 1.78 -0.66 s0.66 -1.14 0.66 -2.1 c0 -0.73334 -0.15334 -1.34 -0.46 -1.82 s-0.77332 -0.72 -1.4 -0.72 c-0.57334 0 -0.98334 0.20334 -1.23 0.61 s-0.37 0.90332 -0.37 1.49 l0 3.1 z M31.02 9.44 c0.69334 0 1.3166 0.096622 1.87 0.28996 s1.0167 0.50668 1.39 0.94002 s0.66 0.99 0.86 1.67 s0.3 1.5 0.3 2.46 l0 0.31 l-0.04 0.63 l-5.6 0 l-0.42 -0.06 c0.01334 0.38666 0.05668 0.69666 0.13002 0.93 s0.18 0.41668 0.32 0.55002 s0.31 0.22668 0.51 0.28002 s0.42666 0.08668 0.68 0.10002 c0.41334 0.02666 0.77 -0.03334 1.07 -0.18 s0.58334 -0.44666 0.85 -0.9 c0.41334 0.13334 0.79334 0.26 1.14 0.38 c0.29334 0.10666 0.56 0.2 0.8 0.28 s0.36 0.11334 0.36 0.1 c-0.48 1 -1.0633 1.73 -1.75 2.19 s-1.51 0.69 -2.47 0.69 c-0.70666 0 -1.3467 -0.09334 -1.92 -0.28 s-1.06 -0.49 -1.46 -0.91 s-0.71 -0.96666 -0.93 -1.64 s-0.33 -1.4967 -0.33 -2.47 c0 -0.94666 0.11 -1.7567 0.33 -2.43 s0.53 -1.2267 0.93 -1.66 s0.88666 -0.75334 1.46 -0.96 s1.2133 -0.31 1.92 -0.31 z M32.12 13.440000000000001 l0.30004 0.04 c-0.02666 -0.46666 -0.15 -0.83 -0.37 -1.09 s-0.56334 -0.39 -1.03 -0.39 c-0.53334 0 -0.91668 0.13 -1.15 0.39 s-0.37668 0.62334 -0.43002 1.09 c0.06666 -0.01334 0.12666 -0.02334 0.18 -0.03 s0.11334 -0.01 0.18 -0.01 l2.32 0 z M37.699999999999996 12.04 l-1.68 0 l1.32 -2.48 l2.9 0 l0.26 1.12 c0.33334 -0.36 0.73 -0.66 1.19 -0.9 s0.99 -0.36 1.59 -0.36 c1.2133 0 2.1134 0.32334 2.7 0.97 s0.88 1.67 0.88 3.07 l0 6.54 l-3.04 0 l0 -6.02 c0 -0.61334 -0.15 -1.0533 -0.45 -1.32 s-0.68334 -0.4 -1.15 -0.4 c-0.38666 0 -0.73332 0.13 -1.04 0.39 s-0.46 0.69 -0.46 1.29 l0 6.06 l-3.02 0 l0 -7.96 z M59.059999999999995 19.66 c-0.56 0.22666 -1.0966 0.37664 -1.61 0.44998 s-1.0833 0.11 -1.71 0.11 c-1.1333 0 -2.1266 -0.18 -2.98 -0.54 s-1.5633 -0.86334 -2.13 -1.51 s-0.99332 -1.4167 -1.28 -2.31 s-0.43 -1.8733 -0.43 -2.94 s0.14666 -2.0534 0.44 -2.96 s0.72334 -1.6867 1.29 -2.34 s1.27 -1.1633 2.11 -1.53 s1.8 -0.55 2.88 -0.55 c0.62666 0 1.1933 0.06 1.7 0.18 s1 0.28666 1.48 0.5 l-0.82 2.66 c-0.26666 -0.12 -0.56332 -0.22666 -0.88998 -0.32 s-0.71666 -0.14 -1.17 -0.14 c-2.3734 0 -3.56 1.5 -3.56 4.5 c0 1.5067 0.30666 2.62 0.92 3.34 s1.56 1.08 2.84 1.08 c0.42666 0 0.80332 -0.03 1.13 -0.09 s0.65 -0.15 0.97 -0.27 z M65.67999999999999 15.42 c-0.13334 -0.02666 -0.2733 -0.04338 -0.41996 -0.050038 s-0.27332 -0.01 -0.37998 -0.01 c-0.56 0 -1.0133 0.08666 -1.36 0.26 s-0.52 0.47334 -0.52 0.9 c0 0.26666 0.06334 0.47666 0.19 0.63 s0.28332 0.26668 0.46998 0.34002 s0.38332 0.11668 0.58998 0.13002 s0.38332 0.02 0.52998 0.02 c0.26666 0 0.56666 -0.03334 0.9 -0.1 l0 -2.12 z M64.63999999999999 13.219999999999999 c0.10666 0 0.24996 0.0033594 0.42996 0.01002 s0.38334 0.01666 0.61 0.03 c-0.01334 -0.52 -0.19668 -0.85666 -0.55002 -1.01 s-0.81 -0.23 -1.37 -0.23 c-0.30666 0 -0.66 0.03666 -1.06 0.11 s-0.83334 0.18334 -1.3 0.33 l-0.32 -1.1 c-0.04 -0.14666 -0.09666 -0.36 -0.17 -0.64 s-0.12334 -0.5 -0.15 -0.66 c0.66666 -0.22666 1.2967 -0.39 1.89 -0.49 s1.13 -0.15 1.61 -0.15 c1.4133 0 2.5066 0.33666 3.28 1.01 s1.16 1.75 1.16 3.23 l0 5.86 c-0.52 0.14666 -1.12 0.29 -1.8 0.43 s-1.4133 0.21 -2.2 0.21 c-0.69334 0 -1.3233 -0.06 -1.89 -0.18 s-1.0533 -0.32 -1.46 -0.6 s-0.72 -0.64666 -0.94 -1.1 s-0.33 -1.0067 -0.33 -1.66 s0.13666 -1.2 0.41 -1.64 s0.62668 -0.79 1.06 -1.05 s0.92 -0.44334 1.46 -0.55 s1.0833 -0.16 1.63 -0.16 z M72.67999999999999 15.68 c-0.72 -0.21334 -1.3133 -0.53998 -1.78 -0.97998 s-0.7 -1.0733 -0.7 -1.9 c0 -1.04 0.36666 -1.8533 1.1 -2.44 s1.7467 -0.88 3.04 -0.88 c0.49334 0 1.0033 0.05334 1.53 0.16 s1.1833 0.3 1.97 0.58 l-1.2 2.16 c-0.41334 -0.14666 -0.77 -0.25666 -1.07 -0.33 s-0.64334 -0.11 -1.03 -0.11 c-0.36 0 -0.64334 0.05 -0.85 0.15 s-0.31 0.26334 -0.31 0.49 c0 0.18666 0.07666 0.32 0.23 0.4 s0.35668 0.16666 0.61002 0.26 l1.08 0.32 c0.36 0.10666 0.69666 0.23332 1.01 0.37998 s0.58 0.33 0.8 0.55 s0.39334 0.49666 0.52 0.83 s0.19 0.74 0.19 1.22 c0 0.50666 -0.10334 0.97666 -0.31 1.41 s-0.50666 0.81 -0.9 1.13 s-0.87334 0.57 -1.44 0.75 s-1.21 0.27 -1.93 0.27 c-0.28 0 -0.55 -0.01 -0.81 -0.03 s-0.51666 -0.05334 -0.77 -0.1 s-0.52 -0.11 -0.8 -0.19 s-0.58 -0.17334 -0.9 -0.28 c0.02666 -0.09334 0.05332 -0.2 0.07998 -0.32 s0.06666 -0.27 0.12 -0.45 s0.11334 -0.39666 0.18 -0.65 s0.15332 -0.56668 0.25998 -0.94002 c0.56 0.14666 1.03 0.25332 1.41 0.31998 s0.76334 0.1 1.15 0.1 c0.16 0 0.33 -0.01334 0.51 -0.04 s0.35 -0.07332 0.51 -0.13998 s0.29334 -0.15332 0.4 -0.25998 s0.16 -0.24666 0.16 -0.42 c0 -0.2 -0.07 -0.34 -0.21 -0.42 s-0.35 -0.16666 -0.63 -0.26 z M80.11999999999999 12.059999999999999 l-1.24 0 l0 -2.52 l1.24 0 l0 -2.84 l3 0 l0 2.84 l2.48 0 l-1.4 2.52 l-1.18 0 l0.1 0.64 l0 3.14 c0 0.34666 0.02334 0.62666 0.07 0.84 s0.12 0.38 0.22 0.5 s0.22666 0.20334 0.38 0.25 s0.33 0.07 0.53 0.07 c0.14666 0 0.32666 -0.01666 0.54 -0.05 s0.44 -0.07 0.68 -0.11 l0.16 1.34 l0.12 1.2 c-0.38666 0.08 -0.74 0.14 -1.06 0.18 s-0.64666 0.06 -0.98 0.06 c-1.24 0 -2.16 -0.28666 -2.76 -0.86 s-0.9 -1.52 -0.9 -2.84 l0 -4.36 z"/></g></svg>