<svg xmlns="http://www.w3.org/2000/svg" viewBox="0 0 369.667 100.866"><defs><linearGradient id="a"><stop offset="0" stop-color="#ee2a7b"/><stop offset="1" stop-color="#ff7db8"/></linearGradient></defs><path xmlns="http://www.w3.org/2000/svg" fill="url(#a)" d="M87.5 41.9c0-5-3.5-9.2-8.1-10.4 1.7-2.5 2.5-5.3 1.9-8.3-.2-.8-.7-1.5-1.5-1.8-.7-.3-1.6-.3-2.3.2-5.2 3.1-9.5 4.6-12.3 5.3l-4.8-8.5c-.5-.9-1.5-1.4-2.5-1.2-1 .1-1.8.9-2.1 1.9-.6 2.4-2.4 5.3-4.6 7.7v-3.1c0-5.9 3.3-11.3 8.6-13.9l-2.2-4.5c-7 3.5-11.4 10.6-11.4 18.4v5.1l-13-13c-.6-.6-1.4-.8-2.2-.7-.8.1-1.5.6-1.8 1.3-1.1 2.3-1.8 4.7-2.1 7.2l-9.6-5.8c-.8-.5-1.7-.5-2.5 0-.8.4-1.3 1.2-1.3 2.1-.1 3.2 1.1 8.4 5.1 12.1-3.8 1.7-6.4 5.4-6.4 9.8 0 2.3.7 4.4 2 6.2-1.2 1.7-2 3.9-2 6.2 0 3.7 1.9 7 4.8 8.9-.4 1.2-.7 2.4-.7 3.8 0 5.1 3.5 9.3 8.2 10.4.1 5.1 3.7 9.3 8.5 10.4 1 4.8 5.3 8.5 10.5 8.5 2.8 0 5.3-1.1 7.2-2.8 1.9 1.7 4.4 2.8 7.2 2.8 5.1 0 9.5-3.6 10.5-8.5 4.8-1 8.5-5.3 8.5-10.5v-.6c3.7-1.7 6.2-5.4 6.2-9.7 0-1.8-.5-3.5-1.2-5 2-2 3.3-4.7 3.3-7.7 0-1.7-.4-3.3-1.1-4.7 2-1.9 3.2-4.6 3.2-7.6zm-7.1 12.4c0 3.2-2.6 5.7-5.7 5.7-2.2 0-4.1-1.2-5.1-3 .2-.9.4-1.8.4-2.7s-.1-1.8-.4-2.7c.2-.4.4-.7.7-1.1 1.8 1.3 4 2.1 6.4 2.1 1.1 0 2.2-.2 3.3-.5.3.7.4 1.4.4 2.2zm-2 12.7c0 3.2-2.6 5.7-5.7 5.7S67 70.1 67 67c0-1.5.6-2.9 1.6-4 1.8 1.2 3.9 2 6.2 2 1.1 0 2.1-.2 3.1-.5.3.8.5 1.6.5 2.5zM58.2 91.3c-2.3 0-4.3-1.3-5.2-3.3 2.4-.2 4.5-1.2 6.2-2.8 1.2 1.1 2.7 1.9 4.3 2.4-.8 2.1-2.8 3.7-5.3 3.7zM22 64.9c.4 0 .8.1 1.2.1 1.5 0 2.8-.3 4.1-.8.6.2 1.2.4 1.9.6-.1.7-.2 1.4-.2 2.2 0 1.8.4 3.5 1.2 5-.8.5-1.8.8-2.8.8-3.2 0-5.7-2.6-5.7-5.7-.1-.8.1-1.5.3-2.2zm-4.5-23c0-3.2 2.6-5.7 5.7-5.7h.7c-1 1.7-1.6 3.6-1.6 5.7s.6 4 1.6 5.7h-.7c-3.1 0-5.7-2.5-5.7-5.7zm2.4-16.8 7.5 4.5c.1.6.2 1.1.4 1.7-4.5-1.1-6.8-3.8-7.9-6.2zm56.9 22.5c-1.4 0-2.7-.5-3.7-1.4.6-1.3.9-2.8.9-4.4s-.3-3-.9-4.4c1-.9 2.3-1.4 3.7-1.4 3.2 0 5.7 2.6 5.7 5.7s-2.6 5.9-5.7 5.9zM32.5 22.1 43.4 33c-3.3.8-6.9.5-10.1-.9-1.3-3.1-1.6-6.7-.8-10zM52.1 83c-3.2 0-5.7-2.6-5.7-5.7 0-.8.2-1.6.5-2.2l1.2-1.2c2 2.4 4.9 3.9 8.2 3.9.5 0 1.1-.1 1.6-.1-.3 2.9-2.8 5.3-5.8 5.3zM25.7 54.3c0-.7.1-1.4.4-2 .7-.2 1.4-.5 2-.8 1.5.8 3.1 1.2 4.9 1.2h.9c-.1.5-.1 1.1-.1 1.7 0 1.7.4 3.2 1.1 4.6-.9.7-2.1 1.1-3.4 1.1-3.2-.1-5.8-2.7-5.8-5.8zM66 36.9c1.8 1 3 2.9 3 5 0 3.2-2.6 5.7-5.7 5.7-2.1 0-3.9-1.1-4.9-2.8.3-.9.4-1.9.4-3s-.2-2-.4-3c.1-.2.2-.4.4-.5 2.4-.1 4.8-.6 7.2-1.4zm-1 17.4c0 3.2-2.6 5.7-5.7 5.7-1.9 0-3.6-.9-4.6-2.3.4-1.1.6-2.2.6-3.4s-.2-2.3-.6-3.4c.3-.5.7-.9 1.2-1.2 1.9 1.8 4.5 3 7.4 3 .5 0 1 0 1.5-.1.1.5.2 1.1.2 1.7zM61.9 67c0 3.2-2.6 5.7-5.7 5.7-3.2 0-5.7-2.6-5.7-5.7 0-1.8.8-3.3 2.1-4.4 1.8 1.5 4.2 2.4 6.8 2.4.8 0 1.5-.1 2.2-.2.2.7.3 1.4.3 2.2zm-17.4-7c-3.2 0-5.7-2.6-5.7-5.7 0-1.8.8-3.4 2.1-4.4 1.9 1.7 4.4 2.8 7.2 2.8.7 0 1.3-.1 1.9-.2.2.6.3 1.2.3 1.8-.1 3.1-2.7 5.7-5.8 5.7zm9.3-18.1c0 3.2-2.6 5.7-5.7 5.7s-5.7-2.6-5.7-5.7c0-1.5.6-2.8 1.5-3.8 1.1-.2 2.3-.5 3.3-1 1.7.6 3.5.9 5.3 1.2.8 1 1.3 2.2 1.3 3.6zM31 36.6c2.1 1 4.3 1.6 6.6 1.8l.3.3c-.3 1-.5 2.1-.5 3.2s.2 2.2.5 3.2c-1 1.5-2.8 2.5-4.8 2.5-3.2 0-5.7-2.6-5.7-5.7-.1-2.4 1.4-4.5 3.6-5.3zM34 67c0-.9.2-1.7.5-2.4 1.3-.4 2.4-1 3.5-1.8 1.8 1.4 4.1 2.2 6.5 2.2h.6c.2.6.4 1.3.4 2 0 3.2-2.6 5.7-5.7 5.7S34 70.1 34 67zm35.7-33.7c-.4-.3-.8-.5-1.2-.8l-.7-1.2c2.1-.6 4.6-1.5 7.6-2.9-1.2 1.9-3.3 3.6-5.7 4.9zm-6.9-.7c-3.6 1-7.4 1.1-11 .5 2.6-2.2 5-5.1 6.7-8l4.3 7.5zM18.3 51.4c.8.4 1.7.8 2.6 1-.1.6-.2 1.2-.2 1.9 0 2.1.6 4 1.6 5.7-2.8-.4-4.9-2.8-4.9-5.7.1-1.1.4-2 .9-2.9zm15.2 24.4c1.7 1.2 3.9 2 6.2 2 .5 0 1.1-.1 1.6-.1-.2 3-2.7 5.4-5.7 5.4-3.1 0-5.7-2.5-5.7-5.6 1.3-.4 2.5-1 3.6-1.7zm10.3 8.4c1 1.2 2.3 2.2 3.8 2.9.1.8.3 1.5.6 2.2-1.1 1.2-2.6 2-4.4 2-2.4 0-4.5-1.5-5.3-3.6 2.1-.7 4-1.9 5.3-3.5zM66.5 83c-1.7 0-3.3-.8-4.4-2 .4-1.2.7-2.4.7-3.7 0-.6-.1-1.2-.2-1.7.7-.5 1.2-1.1 1.8-1.7 1.9 2.2 4.7 3.7 7.8 3.8-.2 3-2.7 5.3-5.7 5.3z" transform="translate(-13.76 -5.881) scale(1.10963)"/><path fill="#111" d="M122.061 67.085c-3.427 0-6.343-.585-8.747-1.756s-4.368-2.78-5.894-4.827-2.643-4.484-3.354-7.305S103 47.293 103 43.949s.355-6.427 1.066-9.249 1.829-5.246 3.354-7.273 3.49-3.605 5.894-4.734S118.634 21 122.061 21s6.343.564 8.747 1.693 4.368 2.707 5.894 4.734 2.633 4.452 3.323 7.273 1.034 5.904 1.034 9.249-.344 6.426-1.034 9.248-1.798 5.256-3.323 7.305-3.49 3.657-5.894 4.827-5.32 1.756-8.747 1.756zm0-8.778c2.884 0 4.964-1.191 6.239-3.574s1.912-5.978 1.912-10.784-.616-8.34-1.85-10.597-3.312-3.386-6.238-3.386c-2.968 0-5.09 1.129-6.364 3.386s-1.913 5.79-1.913 10.597.638 8.401 1.913 10.784 3.375 3.574 6.301 3.574zm27.4-16.93h-6.27l4.139-7.711h9.907l.815 3.636c.961-1.128 2.142-2.058 3.542-2.79s3.041-1.097 4.922-1.097c1.84 0 3.553.324 5.142.972s2.968 1.64 4.138 2.978 2.09 3.02 2.759 5.047 1.003 4.442 1.003 7.242c0 5.434-1.526 9.646-4.577 12.634s-7.357 4.484-12.916 4.484a26.29 26.29 0 0 1-3.135-.188v14.483h-9.468v-39.69zm9.468 16.867c1.045.21 2.111.314 3.198.314 2.34 0 4.2-.69 5.58-2.07s2.07-3.573 2.07-6.583c0-2.299-.481-4.2-1.443-5.706s-2.424-2.257-4.389-2.257c-1.797 0-3.083.638-3.856 1.913s-1.16 2.831-1.16 4.67v9.72zm38.937-24.955c2.174 0 4.128.303 5.863.91s3.187 1.588 4.358 2.946 2.069 3.104 2.696 5.236.94 4.702.94 7.712v.972l-.125 1.975h-17.556l-1.317-.188c.042 1.212.178 2.184.408 2.916s.564 1.306 1.003 1.724.972.71 1.599.878 1.337.272 2.131.313c1.296.084 2.414-.104 3.355-.564s1.829-1.4 2.665-2.822c1.296.419 2.487.816 3.574 1.192.92.334 1.755.627 2.508.878s1.128.355 1.128.313c-1.505 3.135-3.333 5.424-5.486 6.866s-4.734 2.163-7.744 2.163c-2.215 0-4.222-.293-6.019-.878s-3.323-1.536-4.577-2.853-2.226-3.03-2.916-5.141-1.034-4.692-1.034-7.744c0-2.968.345-5.507 1.034-7.618s1.662-3.846 2.916-5.204 2.78-2.362 4.577-3.01 3.804-.972 6.02-.972zm3.449 12.54.94.126c-.083-1.463-.47-2.602-1.16-3.417s-1.766-1.223-3.229-1.223c-1.672 0-2.873.408-3.605 1.223s-1.18 1.954-1.348 3.417c.209-.042.397-.073.564-.094s.356-.031.565-.031h7.273zm17.493-4.389h-5.266l4.138-7.774h9.091l.816 3.51c1.045-1.128 2.288-2.068 3.73-2.82s3.104-1.13 4.985-1.13c3.804 0 6.626 1.014 8.465 3.042s2.758 5.235 2.758 9.624v20.503h-9.53V47.522c0-1.922-.47-3.302-1.41-4.138s-2.143-1.254-3.606-1.254c-1.212 0-2.3.408-3.26 1.223s-1.443 2.163-1.443 4.044v18.998h-9.468V41.44zm66.965 23.89c-1.756.71-3.438 1.18-5.047 1.41s-3.397.345-5.361.345c-3.553 0-6.667-.564-9.343-1.693s-4.9-2.706-6.677-4.734-3.115-4.441-4.013-7.242-1.348-5.873-1.348-9.217.46-6.437 1.379-9.28 2.268-5.287 4.044-7.335 3.982-3.647 6.615-4.797 5.643-1.724 9.03-1.724c1.964 0 3.74.188 5.329.564s3.135.899 4.64 1.567l-2.571 8.34c-.836-.377-1.766-.71-2.79-1.004s-2.247-.438-3.668-.438c-7.441 0-11.161 4.702-11.161 14.107 0 4.724.961 8.214 2.884 10.471s4.89 3.386 8.904 3.386c1.337 0 2.518-.094 3.542-.282s2.038-.47 3.041-.846zm20.754-13.293c-.418-.084-.857-.136-1.317-.157s-.857-.031-1.19-.031c-1.757 0-3.178.271-4.265.815s-1.63 1.484-1.63 2.821c0 .836.199 1.495.596 1.975s.888.836 1.473 1.066 1.202.366 1.85.408 1.202.063 1.661.063c.836 0 1.777-.105 2.822-.314v-6.646zm-3.26-6.897c.334 0 .783.01 1.347.031s1.202.052 1.913.094c-.042-1.63-.617-2.685-1.725-3.166s-2.539-.721-4.295-.721c-.961 0-2.069.115-3.323.345s-2.612.574-4.075 1.034l-1.003-3.448c-.126-.46-.304-1.129-.533-2.007s-.387-1.567-.47-2.069c2.09-.71 4.065-1.223 5.925-1.536s3.542-.47 5.047-.47c4.43 0 7.858 1.055 10.283 3.166s3.637 5.486 3.637 10.126v18.372c-1.63.46-3.512.909-5.644 1.348s-4.43.658-6.897.658c-2.173 0-4.148-.188-5.925-.564s-3.302-1.003-4.577-1.881-2.257-2.028-2.947-3.449-1.035-3.156-1.035-5.204.429-3.762 1.286-5.141 1.965-2.477 3.323-3.292 2.884-1.39 4.577-1.725 3.396-.501 5.11-.501zm25.205 7.712c-2.257-.669-4.117-1.693-5.58-3.072s-2.195-3.365-2.195-5.957c0-3.26 1.15-5.81 3.449-7.65s5.476-2.758 9.53-2.758c1.547 0 3.146.167 4.797.501s3.71.94 6.176 1.819l-3.762 6.771c-1.296-.46-2.414-.804-3.355-1.034s-2.016-.345-3.229-.345c-1.128 0-2.017.157-2.664.47s-.972.826-.972 1.536c0 .586.24 1.004.72 1.254s1.119.523 1.913.816l3.386 1.003c1.129.334 2.184.731 3.166 1.191s1.819 1.035 2.508 1.724 1.234 1.557 1.63 2.602.596 2.32.596 3.825c0 1.589-.324 3.062-.971 4.42s-1.589 2.54-2.822 3.543-2.738 1.787-4.514 2.351-3.794.847-6.051.847c-.878 0-1.724-.031-2.54-.094s-1.62-.167-2.413-.314-1.63-.345-2.509-.595-1.818-.544-2.821-.878c.084-.293.167-.627.25-1.003s.21-.847.377-1.411.355-1.244.564-2.038.48-1.776.815-2.947c1.756.46 3.23.794 4.42 1.003s2.394.314 3.606.314c.502 0 1.035-.042 1.599-.126s1.097-.23 1.599-.438.92-.481 1.254-.816.501-.773.501-1.316c0-.627-.22-1.066-.658-1.317s-1.097-.522-1.975-.815zm23.325-11.349h-3.888v-7.9h3.888v-8.904h9.405v8.904h7.775l-4.39 7.9h-3.698l.313 2.007v9.844c0 1.086.073 1.964.22 2.633s.376 1.191.69 1.568.71.637 1.19.783 1.035.22 1.662.22c.46 0 1.024-.052 1.693-.157s1.38-.22 2.132-.345l.501 4.201.377 3.762c-1.213.251-2.32.44-3.323.565s-2.028.188-3.073.188c-3.887 0-6.772-.9-8.653-2.697s-2.821-4.765-2.821-8.903V41.503z"/></svg>